<svg xmlns="http://www.w3.org/2000/svg" width="24" height="24" viewBox="0 0 24 24" id="refresh"><g transform="translate(-528 -216)"><path fill="none" d="M0,0H24V24H0Z" data-name="Path 3665" transform="translate(528 216)"></path><path fill="#525863" d="M19.2.914v4.9a1.5,1.5,0,0,1-1.5,1.5H12.8a.914.914,0,1,1,0-1.829h3.392a7.768,7.768,0,1,0,.752,6.664.914.914,0,0,1,1.727.6,9.607,9.607,0,1,1-1.3-8.78V.914a.914.914,0,1,1,1.829,0Z" data-name="Path 2695" transform="translate(530.4 218.4)"></path></g></svg>